<!DOCTYPE svg PUBLIC "-//W3C//DTD SVG 1.1//EN" "http://www.w3.org/Graphics/SVG/1.1/DTD/svg11.dtd">
<!-- Uploaded to: SVG Repo, www.svgrepo.com, Transformed by: SVG Repo Mixer Tools -->
<svg height="800px" width="800px" version="1.1" id="Layer_1" xmlns="http://www.w3.org/2000/svg" xmlns:xlink="http://www.w3.org/1999/xlink" viewBox="0 0 392.663 392.663" xml:space="preserve" fill="#000000">
<g id="SVGRepo_bgCarrier" stroke-width="0"/>
<g id="SVGRepo_tracerCarrier" stroke-linecap="round" stroke-linejoin="round"/>
<g id="SVGRepo_iconCarrier"> <path style="fill:#56ACE0;" d="M316.186,200.145H156.832c3.62-26.958,20.881-50.36,45.77-61.996l24.889,37.042 c4.331,6.4,13.77,6.4,18.101,0l24.889-37.042C295.24,149.721,312.501,173.123,316.186,200.145z"/> <path style="fill:#FFFFFF;" d="M359.822,221.931H32.711c-6.012,0-10.925,4.848-10.925,10.925v111.515 c0,6.012,4.848,10.925,10.925,10.925h327.111c6.012,0,10.925-4.848,10.925-10.925v-111.58 C370.747,226.844,365.834,221.931,359.822,221.931z"/> <path style="fill:#4F5DF5;" d="M359.822,200.145h-21.721c-4.202-39.046-30.513-72.663-68.202-85.721 c-4.719-1.616-9.891,0.129-12.606,4.267l-20.816,30.901l-20.816-30.901c-2.78-4.073-7.952-5.883-12.606-4.267l0,0 c-37.689,13.059-64.065,46.675-68.202,85.721h-39.24l-0.711-38.788l27.41-24.824c4.461-4.008,4.784-10.99,0.776-15.386 c-4.008-4.461-10.99-4.784-15.386-0.776l-30.966,28.121c-2.327,2.069-3.62,5.107-3.556,8.275l0.776,43.378H32.711 C14.675,200.145,0,214.82,0,232.857v111.515c0,18.036,14.675,32.711,32.711,32.711h37.042v4.59c0,6.012,4.848,10.925,10.925,10.925 c6.077,0,10.925-4.848,10.925-10.925v-4.59h209.39v4.59c0,6.012,4.849,10.925,10.925,10.925c6.012,0,10.925-4.848,10.925-10.925 v-4.59h37.107c18.036,0,32.711-14.675,32.711-32.711v-111.58C392.533,214.82,377.859,200.145,359.822,200.145z M370.747,344.372 c0,6.012-4.848,10.925-10.925,10.925H32.711c-6.012,0-10.925-4.848-10.925-10.925v-111.58c0-6.012,4.848-10.925,10.925-10.925 h327.111c6.012,0,10.925,4.848,10.925,10.925V344.372L370.747,344.372z M202.602,138.149l24.889,37.042 c4.331,6.4,13.77,6.4,18.101,0l24.889-37.042c24.824,11.572,42.02,34.974,45.77,61.996H156.832 C160.517,173.123,177.713,149.721,202.602,138.149z"/> <path style="fill:#DA3850;" d="M43.572,243.782v10.343h33.099c6.012,0,10.925,4.848,10.925,10.925 c0,6.012-4.848,10.925-10.925,10.925H43.572v19.717h2.004c6.012,0,10.925,4.848,10.925,10.925c0,6.012-4.848,10.925-10.925,10.925 h-2.004v16.097h305.325v-89.859H43.572z"/> <path style="fill:#FFFFFF;" d="M265.374,50.747c0-15.903-12.994-28.832-28.832-28.832s-28.897,12.929-28.897,28.832 s12.994,28.832,28.832,28.832S265.374,66.651,265.374,50.747z"/> <path style="fill:#4F5DF5;" d="M236.541,0.065c-27.992,0-50.683,22.691-50.683,50.683s22.691,50.683,50.683,50.683 s50.683-22.691,50.683-50.683S264.404,0.065,236.541,0.065z M207.644,50.747c0-15.903,12.994-28.832,28.832-28.832 s28.832,12.994,28.832,28.832S252.315,79.58,236.477,79.58S207.644,66.651,207.644,50.747z"/> </g>
</svg>